<svg height="122" viewBox="0 0 51 122" width="51" xmlns="http://www.w3.org/2000/svg"><g fill="none" fill-rule="evenodd" transform="translate(2.595 2.392)"><path d="m44.765 118.961c-.13-3.793-.433-7.62-.344-11.413.095-4.226.59-8.436.525-12.668-.063-4.445-.19-8.795.198-13.216.41-4.623.567-8.522.104-13.112-.522-5.124-.474-8.416-.249-13.774.184-4.368-.012-8.715-.107-13.086-.187-8.57.623-16.72-2.218-25.053-.602-1.768-2.093-3.283-3.2-4.78-1.423-1.93-2.831-4.763-4.66-6.322-1.474-1.258-3.936-1.803-5.694-2.533-2.319-.96-4.635-1.921-6.948-2.882-.216-.089-.462-.124-.714-.122-.273-.002-.576.036-.91.131l-7.859 2.271c-1.983.573-3.436.84-4.72 2.52-1.83 2.39-4.003 4.965-5.442 7.604-.963 1.767-1.183 3.994-1.636 5.954-.391 1.674-.678 3.352-.891 5.034" stroke="#000" stroke-width="4"/><path d="m42.674 16.639-1.24 1.869-1.354 25.886v15.087l-1.759 13.103-3.557 15.615-3.986 7.556 14.168-.875v-11.649l.584-19.867v-18.97z" fill="#000"/></g></svg>