<svg height="190" viewBox="0 0 271 190" width="271" xmlns="http://www.w3.org/2000/svg"><path d="m30.132 7.209-1.733 7.083-1.386 7.177-2.056 7-1.871 7.049-1.766 7.077-2.619 6.851-1.075 7.261-2.074 6.996-1.971 7.024-1.88 7.047-1.978 7.02-1.587 7.125-2.07 7-1.914 7.039-1.515 7.15-2.216 6.968.7 7.287 1.679 7.114 1.302 7.189 2.352 6.918 2.119 6.994 3.325 6.515 2.954 6.669 3.169 6.624 4.384 5.889 5.611 4.696 6.525 3.343 7.401.345 7.094-2.034 6.445-3.493 6.151-3.959 5.852-4.424 5.356-5.023 4.759-6.065 7.464.98 7.48.819 7.512.487 7.437 1.334 7.555-.015 7.483.827 7.474.957 7.565-.223 7.484.838 7.467 1.119 7.565-.326 7.504.587 7.477 1.107 7.562-.47 7.504.669 7.502.871 7.53.171 7.54-.662 7.522.256 7.532.148 7.531-.316 7.448-1.168 6.6-3.115-4.855-4.849-6.55-2.99-6.716-2.643-6.939-1.999-6.825-2.362-6.943-1.979-6.975-1.857-6.86-2.311-7.164-1.139-6.906-2.157-7.165-1.103-6.868-2.328-7.067-1.499-6.976-1.876-7.036-1.628-6.616-1.676 6.921 1.383 7.364.456 7.093 2.036 7.235 1.223 7.26 1.079 7.299.847 7.267 1.034 7.261 1.068 7.104 2.049 7.302.82 7.3.79 7.283.898 7.268 1.017 7.254 1.257 7.36.074 7.336-.099 7.385-.106 5.183-4.37-4.779-5.025-6.469-3.372-6.802-2.593-6.853-2.425-6.815-2.506-6.73-2.766-7.088-1.716-6.83-2.477-6.94-2.146-6.839-2.471-7.072-1.744-6.759-2.731-7.088-1.678-6.908-2.255-6.82-2.54-6.895-2.291-7.222-1.239-6.834-2.492-6.941-2.623 7.177 2.082 7.266 1.004 7.032 2.043 7.23 1.242 6.948 2.371 7.283 1.054 6.884 2.62 7.086 1.84 7.273 1.081 7.117 1.683 7.162 1.477 7.098 1.776 7.116 1.823 7.358.12 7.234-.043 6.112-2.864-4.022-6.088-6.129-4.337-6.671-3.461-6.724-3.361-7.149-2.377-6.92-2.904-6.979-2.765-6.839-3.146-7.031-2.644-7.191-2.201-7.116-2.402-6.925-2.933-7.096-2.452-7.189-2.211-6.824-3.169-6.766-2.556 6.739 1.528 6.875 2.09 6.655 2.816 7.023 1.593 6.943 1.85 6.964 1.76 6.976 1.685 6.925 1.932 7.116.934 7.199.852 5.608-3.978-3.586-6.103-5.798-4.712-6.468-3.74-6.789-3.116-6.603-3.457-6.594-3.505-7.03-2.553-6.787-3.078-6.563-3.625-7.178-2.163-6.792-3.096-6.814-3.054-7.255-1.93-6.596-3.617-7.178-2.11-6.958-2.685-6.926-2.776-7.17-2.112-6.779-3.181-7.163-2.128-6.809-3.112-7.191-2.055-6.982-2.641-7.168-2.113-6.998-2.581-6.848-3.024-7.303-1.696-6.864-2.628z" fill="#a9ff03" fill-rule="evenodd" transform="translate(.185 -.058)"/></svg>